Coordinates
version=1
nRows=32
nColumns=22
inDegrees=yes

Units are S.I. units (second, meters, Newtons, ...)
If the header above contains a line with 'inDegrees', this indicates whether rotational values are in degrees (yes) or radians (no).

endheader
time	pelvis_tilt	pelvis_list	pelvis_rotation	pelvis_tx	pelvis_ty	pelvis_tz	hip_flexion_r	hip_adduction_r	hip_rotation_r	knee_angle_r	ankle_angle_r	subtalar_angle_r	hip_flexion_l	hip_adduction_l	hip_rotation_l	knee_angle_l	ankle_angle_l	subtalar_angle_l	lumbar_extension	lumbar_bending	lumbar_rotation
      0.01000000	      0.07042133	     -3.58804251	      1.40089869	     -1.19514409	      0.95810304	      0.00718324	      7.72738157	      6.53947792	     -1.11402469	    -20.37814386	     12.43270216	     -3.81870208	     10.29728745	     -6.36050843	     -5.39458122	    -25.64716872	     13.10984004	     -2.23416794	     -7.73104630	      2.12805204	     -0.48386250
      0.02000000	     -0.18774549	     -3.54064847	      1.22758767	     -1.19576516	      0.95751543	      0.00770017	      8.13287194	      6.46824245	     -1.38002220	    -20.51634831	     12.44360827	     -3.89209546	     10.66075246	     -6.36029813	     -5.55165917	    -25.78656983	     13.13782627	     -2.23839426	     -7.51512134	      2.01922918	     -0.37463388
      0.03000000	     -0.44234196	     -3.52519211	      1.09508272	     -1.19633567	      0.95693732	      0.00813920	      8.51545146	      6.42943384	     -1.65635843	    -20.62434587	     12.46611307	     -3.94050512	     11.03092077	     -6.38678493	     -5.65155844	    -25.93361512	     13.16092769	     -2.22475813	     -7.29346641	      1.95760926	     -0.31820877
      0.04000000	     -0.64409371	     -3.50962502	      0.98037490	     -1.19679093	      0.95647212	      0.00848452	      8.82316772	      6.39538539	     -1.86778643	    -20.71741422	     12.48894880	     -3.97295243	     11.32342828	     -6.40614088	     -5.74068697	    -26.05270665	     13.18231856	     -2.20935312	     -7.11924392	      1.90889412	     -0.27977210
      0.05000000	     -0.78996789	     -3.50271160	      0.89639095	     -1.19710199	      0.95613071	      0.00872349	      9.04561964	      6.37563084	     -2.01508971	    -20.78636392	     12.50713549	     -3.99464988	     11.53652410	     -6.42488668	     -5.80258332	    -26.14348148	     13.20202911	     -2.19694910	     -6.99058760	      1.88218967	     -0.26905288
      0.06000000	     -0.82109787	     -3.49882971	      0.83952121	     -1.19722857	      0.95601779	      0.00886171	      9.10067889	      6.36367049	     -2.11208429	    -20.80030402	     12.51083614	     -3.99985608	     11.59037926	     -6.44191028	     -5.87222152	    -26.18450442	     13.21139406	     -2.19734884	     -6.97632671	      1.87037576	     -0.27514826
      0.07000000	     -0.92023247	     -3.49906958	      0.79852381	     -1.19734996	      0.95579392	      0.00892622	      9.25420523	      6.35766810	     -2.14821191	    -20.86637236	     12.54014237	     -4.01089932	     11.73689008	     -6.45028279	     -5.88920220	    -26.25504470	     13.23734498	     -2.19314656	     -6.87745158	      1.87128819	     -0.29571915
      0.08000000	     -0.92174479	     -3.49991349	      0.77715130	     -1.19734874	      0.95576865	      0.00893522	      9.26445294	      6.35925387	     -2.13637097	    -20.88013146	     12.53872806	     -4.01097030	     11.74385795	     -6.45187753	     -5.89263663	    -26.27296975	     13.23890223	     -2.19323896	     -6.88081873	      1.87983039	     -0.33499819
      0.09000000	     -0.92259021	     -3.49980429	      0.76053770	     -1.19729193	      0.95576048	      0.00890387	      9.26365595	      6.35531289	     -2.13460041	    -20.88182541	     12.53954883	     -4.01102889	     11.74237740	     -6.44831255	     -5.89183899	    -26.28194009	     13.23956746	     -2.19347870	     -6.87783776	      1.89076392	     -0.34501830
      0.10000000	     -0.92213716	     -3.50479243	      0.75299360	     -1.19725594	      0.95574942	      0.00887212	      9.26821815	      6.36252137	     -2.10036311	    -20.89575526	     12.54636670	     -4.00992243	     11.75025222	     -6.45371872	     -5.89982490	    -26.30377206	     13.24964194	     -2.19754000	     -6.88113674	      1.90825147	     -0.39377180
      0.11000000	     -0.92774327	     -3.51643586	      0.75022727	     -1.19718034	      0.95573852	      0.00882516	      9.26412424	      6.37739942	     -2.05972881	    -20.88856425	     12.55522193	     -4.00614598	     11.76086540	     -6.46386146	     -5.90026689	    -26.32225920	     13.26457821	     -2.20431283	     -6.86845530	      1.93496162	     -0.41179666
      0.12000000	     -0.92878392	     -3.51621822	      0.74564488	     -1.19710416	      0.95574200	      0.00876846	      9.26053628	      6.37298743	     -2.05643627	    -20.88991134	     12.55490215	     -4.00588444	     11.75805511	     -6.45890882	     -5.90050338	    -26.32659005	     13.26488170	     -2.20453632	     -6.86253325	      1.94867821	     -0.41210964
      0.13000000	     -0.93038068	     -3.51623179	      0.74128406	     -1.19703182	      0.95574564	      0.00871466	      9.25663177	      6.36945584	     -2.05105378	    -20.88989720	     12.55482007	     -4.00548413	     11.75542179	     -6.45444868	     -5.90071985	    -26.32993985	     13.26561303	     -2.20494371	     -6.85618568	      1.96341083	     -0.41176564
      0.14000000	     -0.94607966	     -3.53649857	      0.72205449	     -1.19694439	      0.95573792	      0.00870873	      9.24719773	      6.39761702	     -1.99457005	    -20.85350145	     12.55485497	     -3.99826474	     11.75905771	     -6.47468235	     -5.90005882	    -26.32359157	     13.28075128	     -2.21256722	     -6.83041725	      1.99748066	     -0.38296043
      0.15000000	     -0.94682069	     -3.53529207	      0.72093283	     -1.19687689	      0.95574119	      0.00865880	      9.24339030	      6.39317106	     -1.99162199	    -20.85574047	     12.55351684	     -3.99789912	     11.75723402	     -6.46991479	     -5.90240210	    -26.32841517	     13.28095715	     -2.21272579	     -6.82450251	      2.01161610	     -0.37835651
      0.16000000	     -0.95885246	     -3.54677594	      0.69958487	     -1.19680390	      0.95573168	      0.00864776	      9.24142795	      6.40494815	     -1.97975912	    -20.83602107	     12.54735369	     -3.99320988	     11.76445931	     -6.48252956	     -5.91131422	    -26.33598503	     13.28734530	     -2.21520651	     -6.80545822	      2.03627856	     -0.31794735
      0.17000000	     -0.95999808	     -3.54569620	      0.69820320	     -1.19672847	      0.95573298	      0.00859640	      9.23718835	      6.40022551	     -1.97573262	    -20.83835465	     12.54645563	     -3.99279134	     11.76258112	     -6.47786926	     -5.91405544	    -26.34012894	     13.28778970	     -2.21518800	     -6.79648995	      2.05309439	     -0.31151700
      0.18000000	     -0.98915514	     -3.57588114	      0.65657663	     -1.19665953	      0.95568961	      0.00863466	      9.25610686	      6.44129442	     -1.91306219	    -20.82292103	     12.53381850	     -3.97836436	     11.78985530	     -6.52121088	     -5.95928709	    -26.35428877	     13.31114407	     -2.21788922	     -6.75652295	      2.09666761	     -0.22170570
      0.19000000	     -0.99698751	     -3.57404470	      0.64588588	     -1.19657762	      0.95567960	      0.00859249	      9.25017147	      6.43428621	     -1.91734778	    -20.80576525	     12.53752890	     -3.97558676	     11.79688535	     -6.51583763	     -5.95929595	    -26.36699697	     13.31339704	     -2.21666106	     -6.74032407	      2.11134562	     -0.18701989
      0.20000000	     -1.00672750	     -3.57751909	      0.63408440	     -1.19649136	      0.95566627	      0.00854277	      9.24700901	      6.43274348	     -1.91741679	    -20.79024203	     12.54468922	     -3.97192541	     11.80263010	     -6.51574258	     -5.96098030	    -26.37340446	     13.31772052	     -2.21566295	     -6.72192058	      2.13316979	     -0.14670423
      0.21000000	     -1.01722404	     -3.58328000	      0.62457552	     -1.19638790	      0.95564926	      0.00849083	      9.24333657	      6.43458986	     -1.91129099	    -20.77660118	     12.55238202	     -3.96583134	     11.80922874	     -6.51979481	     -5.96881385	    -26.38024084	     13.32610089	     -2.21527036	     -6.69866912	      2.15665601	     -0.10442380
      0.22000000	     -1.01891556	     -3.58114911	      0.62508371	     -1.19630056	      0.95564573	      0.00840466	      9.23908886	      6.42569684	     -1.90879885	    -20.77749604	     12.55293148	     -3.96530864	     11.80714993	     -6.51208528	     -5.97162421	    -26.38409047	     13.32672366	     -2.21506208	     -6.69062782	      2.17752715	     -0.09773867
      0.23000000	     -1.03241196	     -3.58529637	      0.61756982	     -1.19619047	      0.95563097	      0.00832608	      9.23385836	      6.42336184	     -1.91466046	    -20.75313518	     12.56353669	     -3.95958645	     11.81066470	     -6.51184652	     -5.97977789	    -26.38067080	     13.33713822	     -2.21609491	     -6.66579428	      2.20173958	     -0.04797930
      0.24000000	     -1.03462039	     -3.58339459	      0.62434390	     -1.19610987	      0.95562803	      0.00821677	      9.23112898	      6.41395672	     -1.91127268	    -20.75523155	     12.56398726	     -3.95900032	     11.80890726	     -6.50387720	     -5.98425897	    -26.38136272	     13.33821967	     -2.21603214	     -6.65970673	      2.22299336	     -0.04115685
      0.25000000	     -1.04839298	     -3.58531655	      0.62804450	     -1.19601828	      0.95561441	      0.00810810	      9.23370679	      6.40785367	     -1.91968454	    -20.74341094	     12.57228370	     -3.95345476	     11.80962862	     -6.49991580	     -5.99426071	    -26.36513259	     13.35021819	     -2.21769839	     -6.63972229	      2.24698061	     -0.00767178
      0.26000000	     -1.05096243	     -3.58282870	      0.64020122	     -1.19594727	      0.95561108	      0.00798330	      9.23268244	      6.39837961	     -1.91638404	    -20.74669792	     12.57245141	     -3.95290278	     11.80865007	     -6.49068675	     -5.99922663	    -26.36412490	     13.35138339	     -2.21766194	     -6.63570276	      2.26773913	     -0.00123634
      0.27000000	     -1.05493361	     -3.58036840	      0.65501978	     -1.19588156	      0.95560626	      0.00784885	      9.23299411	      6.38833374	     -1.91474082	    -20.74908606	     12.57309259	     -3.95239585	     11.80862611	     -6.48115051	     -6.00439317	    -26.35961528	     13.35308900	     -2.21768312	     -6.63258676	      2.28878359	      0.00686041
      0.28000000	     -1.07176968	     -3.57765230	      0.67120523	     -1.19579407	      0.95558598	      0.00771169	      9.24676441	      6.37442287	     -1.94119319	    -20.75201817	     12.58091292	     -3.94765260	     11.80983745	     -6.46881496	     -6.00329215	    -26.33293059	     13.36603052	     -2.21932239	     -6.61092025	      2.30688497	      0.02724239
      0.29000000	     -1.07451150	     -3.57475927	      0.68635110	     -1.19572306	      0.95558025	      0.00757585	      9.24629757	      6.36463006	     -1.93890306	    -20.75700241	     12.58105148	     -3.94723202	     11.81019575	     -6.45856665	     -6.00670836	    -26.33270874	     13.36667454	     -2.21920574	     -6.60808461	      2.32648445	      0.03248827
      0.30000000	     -1.09822405	     -3.56914979	      0.72040825	     -1.19566370	      0.95553460	      0.00740690	      9.28135739	      6.34139905	     -2.00153622	    -20.78340031	     12.59576487	     -3.93714818	     11.83552239	     -6.43508362	     -5.96420392	    -26.32770172	     13.37737730	     -2.22035142	     -6.58097748	      2.34255682	      0.03186707
      0.31000000	     -1.10119617	     -3.56738511	      0.73817307	     -1.19560677	      0.95552876	      0.00728026	      9.28069641	      6.33393372	     -1.99788465	    -20.78674228	     12.59571432	     -3.93673443	     11.83840228	     -6.42689263	     -5.96767320	    -26.32705196	     13.37698742	     -2.22013071	     -6.58047570	      2.35944367	      0.03571768
      0.32000000	     -1.12777504	     -3.57775587	      0.78745422	     -1.19555424	      0.95548030	      0.00710941	      9.30519201	      6.32982216	     -2.05671257	    -20.78720521	     12.60802706	     -3.92616002	     11.88229502	     -6.41872698	     -5.90123376	    -26.34227376	     13.37079695	     -2.21966377	     -6.54971353	      2.39025165	      0.01993500
